<svg preserveAspectRatio="none" overflow="visible" style="display: block;" width="104.764" height="67.14" viewBox="0 0 104.764 67.14" fill="none" xmlns="http://www.w3.org/2000/svg">
<g id="Artwork" clip-path="url(#clip0_0_1683)">
<g id="Group">
<path id="Vector" d="M95.3288 51.7163H20.0138C17.6288 51.7163 15.8963 49.8187 16.1475 47.4788L20.7788 4.2375C21.03 1.8975 23.1675 0 25.5525 0H100.868C103.253 0 104.985 1.8975 104.734 4.2375L100.099 47.4788C99.8475 49.8187 97.71 51.7163 95.325 51.7163H95.3288Z" fill="#A7D87C"/>
<path id="Vector_2" d="M85.3875 44.3625C85.8375 42.1163 87.3863 37.9425 92.4975 37.2038C93.255 37.095 93.8663 36.4238 93.945 35.67L96.015 15.9788C96.09 15.2513 95.6588 14.6363 94.9725 14.4563C93.1988 13.9988 90.1088 12.5325 90.0263 8.01375C90.0113 7.24875 89.3963 6.68625 88.6238 6.68625H37.9125C37.1625 6.68625 36.4763 7.2075 36.2475 7.9425C35.6213 9.96 33.7163 13.68 27.8738 14.3663C27.0975 14.4563 26.4675 15.1425 26.385 15.9113L24.2662 36.0825C24.18 36.9075 24.7425 37.6125 25.56 37.6463C27.975 37.7513 32.4413 38.79 32.5238 44.3813C32.535 45.1613 33.1425 45.7463 33.9263 45.7463H83.685C84.48 45.7463 85.2263 45.1538 85.3875 44.3625Z" fill="#00AB42"/>
<path id="Vector_3" d="M36.7312 22.2975C38.7262 22.2487 41.3062 23.8463 40.3237 27.1763C39.4462 30.1463 36.4313 30.4575 35.0512 30.1312C33.6713 29.8012 31.8225 28.3125 32.2388 25.77C32.5613 23.8013 34.5412 22.35 36.7312 22.3013V22.2975Z" fill="#A7D87C"/>
<path id="Vector_4" d="M81.705 23.4263C83.7 23.3775 86.28 24.975 85.2975 28.305C84.42 31.275 81.405 31.5863 80.025 31.26C78.645 30.93 76.7963 29.4413 77.2125 26.8988C77.535 24.93 79.515 23.4788 81.705 23.43V23.4263Z" fill="#A7D87C"/>
</g>
<path id="Vector_5" d="M88.335 17.5725L93.9713 51.8325H85.0013L88.335 17.5725Z" fill="#404040"/>
<g id="Group_2">
<path id="Vector_6" d="M79.2075 67.14H3.8925C1.5075 67.14 -0.225 65.2425 0.02625 62.9025L4.6575 19.6613C4.90875 17.3213 7.04625 15.4238 9.43125 15.4238H84.7463C87.1312 15.4238 88.8638 17.3213 88.6125 19.6613L83.9775 62.9025C83.7262 65.2425 81.5887 67.14 79.2037 67.14H79.2075Z" fill="#A7D87C"/>
<path id="Vector_7" d="M69.2663 59.7863C69.7163 57.54 71.265 53.3663 76.3763 52.6275C77.1338 52.5188 77.745 51.8475 77.8238 51.0938L79.8938 31.4025C79.9688 30.675 79.5375 30.06 78.8513 29.88C77.0775 29.4225 73.9875 27.9563 73.905 23.4375C73.89 22.6725 73.275 22.11 72.5025 22.11H21.7913C21.0413 22.11 20.355 22.6313 20.1263 23.3663C19.5 25.3838 17.595 29.1038 11.7525 29.79C10.9762 29.88 10.3463 30.5663 10.2638 31.335L8.145 51.5063C8.05875 52.3313 8.62125 53.0363 9.43875 53.07C11.8537 53.175 16.32 54.2138 16.4025 59.805C16.4138 60.585 17.0213 61.17 17.805 61.17H67.5638C68.3588 61.17 69.105 60.5775 69.2663 59.7863Z" fill="#00AD2E"/>
<path id="Vector_8" d="M43.9763 28.5975C50.8238 28.4363 59.6625 33.9075 56.295 45.3263C53.2912 55.5113 42.9375 56.5875 38.2088 55.4588C33.4763 54.3338 27.1275 49.215 28.5638 40.5C29.6775 33.7425 36.465 28.7738 43.9763 28.5975Z" fill="#A7D87C"/>
<path id="Vector_9" d="M20.61 37.7213C22.605 37.6725 25.185 39.27 24.2025 42.6C23.325 45.57 20.31 45.8813 18.93 45.555C17.55 45.225 15.7013 43.7363 16.1175 41.1938C16.44 39.225 18.42 37.7738 20.61 37.725V37.7213Z" fill="#A7D87C"/>
<path id="Vector_10" d="M65.58 38.85C67.575 38.8013 70.155 40.3988 69.1725 43.7288C68.295 46.6988 65.28 47.01 63.9 46.6838C62.52 46.3538 60.6712 44.865 61.0875 42.3225C61.41 40.3538 63.39 38.9025 65.58 38.8538V38.85Z" fill="#A7D87C"/>
</g>
</g>
<defs>
<clipPath id="clip0_0_1683">
<rect width="104.764" height="67.14" fill="white"/>
</clipPath>
</defs>
</svg>
